HIERARCHY
ROOT Hips
{
  OFFSET 0 0 0
  CHANNELS 6 Xposition Yposition Zposition Zrotation Yrotation Xrotation
  JOINT LeftThigh
  {
    OFFSET 8.409438 0 -5.917753
    CHANNELS 3 Zrotation Yrotation Xrotation
    JOINT LeftLeg
    {
      OFFSET 0 0 -42.358652
      CHANNELS 3 Zrotation Yrotation Xrotation
      JOINT LeftFoot
      {
        OFFSET 0 0 -39.357303
        CHANNELS 3 Zrotation Yrotation Xrotation
      }
    }
  }
  JOINT RightThigh
  {
    OFFSET -8.409438 0 -5.917753
    CHANNELS 3 Zrotation Yrotation Xrotation
    JOINT RightLeg
    {
      OFFSET 0 0 -42.358652
      CHANNELS 3 Zrotation Yrotation Xrotation
      JOINT RightFoot
      {
        OFFSET 0 0 -39.357303
        CHANNELS 3 Zrotation Yrotation Xrotation
      }
    }
  }
  JOINT SpineLow
  {
    OFFSET 0 0 4.719101
    CHANNELS 3 Zrotation Yrotation Xrotation
    JOINT SpineMid
    {
      OFFSET 0 0 12.899191
      CHANNELS 3 Zrotation Yrotation Xrotation
      JOINT Chest
      {
        OFFSET 0 0 12.899191
        CHANNELS 3 Zrotation Yrotation Xrotation
        JOINT LeftShoulder
        {
          OFFSET 7.550562 1.41573 9.438202
          CHANNELS 3 Zrotation Yrotation Xrotation
          JOINT LeftArm
          {
            OFFSET 9.155056 0 4.247191
            CHANNELS 3 Zrotation Yrotation Xrotation
            JOINT LeftForearm
            {
              OFFSET 0 0 25.771955
              CHANNELS 3 Zrotation Yrotation Xrotation
              JOINT LeftHand
              {
                OFFSET 0 0 25.197169
                CHANNELS 3 Zrotation Yrotation Xrotation
              }
            }
          }
        }
        JOINT RightShoulder
        {
          OFFSET -7.550562 1.41573 9.438202
          CHANNELS 3 Zrotation Yrotation Xrotation
          JOINT RightArm
          {
            OFFSET -9.155056 0 4.247191
            CHANNELS 3 Zrotation Yrotation Xrotation
            JOINT RightForearm
            {
              OFFSET 0 0 -25.771955
              CHANNELS 3 Zrotation Yrotation Xrotation
              JOINT RightHand
              {
                OFFSET 0 0 -25.197169
                CHANNELS 3 Zrotation Yrotation Xrotation
              }
            }
          }
        }
        JOINT Neck
        {
          OFFSET 0 0 15.101124
          CHANNELS 3 Zrotation Yrotation Xrotation
          JOINT Head
          {
            OFFSET 0 0 11.325843
            CHANNELS 3 Zrotation Yrotation Xrotation
            End Site
            {
              OFFSET 0 0 14.157303
            }
          }
        }
      }
    }
  }
}
MOTION
Frames: 8
Frame Time: 0.0
0.0  93.25843  0.0  -2.32006  -23.350823  -88.989781  12.052032  -13.61254  1.702188  6.953848  -2.684354  8.143847  9.291375  1.460532  2.828429  -10.90528  0.794445  -10.391643  0.008751  4.250558  3.177488  6.848193  1.676127  0.737189  2.223233  -1.959029  -0.206538  6.105921  -5.330523  -0.74581  6.105921  -5.330523  -0.74581  -33.947336  30.584425  -18.808773  121.721344  52.570851  -148.545716  -29.484458  -2.872819  93.747796  70.951821  -10.233845  8.337251  -2.642109  -0.009128  27.165115  52.586086  39.956282  -3.115521  4.959357  -20.974084  -127.314946  51.814941  16.944371  -18.24885  -7.040193  10.289303  7.26487  -5.39022  7.63605  5.554422  
0.0  93.25843  0.0  -2.470625  -22.708936  -88.855651  11.178275  -14.021806  1.153268  7.108413  -2.345435  8.987524  8.974017  1.434813  2.672293  -12.059319  0.453774  -10.64258  -0.526962  4.522523  3.401181  7.353823  1.721512  0.803912  2.161411  -1.968239  -0.228558  5.938573  -5.354507  -0.801919  5.938573  -5.354507  -0.801919  -33.913658  30.690298  -18.62228  122.113353  51.991189  -148.098248  -29.034398  -3.601488  94.013279  70.508008  -10.62873  8.347562  -2.812347  -0.105609  27.158027  53.572469  40.246299  -2.925933  4.509063  -21.389813  -127.499949  52.039518  16.992753  -18.260063  -7.059743  10.300839  7.34601  -5.406355  7.643574  5.615561  
0.0  93.25843  0.0  -2.46643  -22.104124  -88.826232  10.696614  -14.300237  0.643205  6.965365  -1.964803  9.91873  8.818371  1.459235  2.667555  -12.948534  0.314672  -10.814101  -0.142826  4.825509  3.916704  7.413302  1.774691  0.779787  2.101541  -1.956707  -0.2473  5.775857  -5.322208  -0.847324  5.775857  -5.322207  -0.847324  -33.967643  30.782517  -18.446725  122.399919  51.391263  -147.776232  -28.705163  -4.714842  94.207422  69.951065  -11.05246  8.316992  -2.602513  -0.214693  27.400888  54.349567  40.660434  -2.879101  4.022754  -21.87025  -127.726423  52.369415  17.060122  -18.331745  -7.062349  10.314853  7.458824  -5.410389  7.6528  5.700124  
0.0  93.25843  0.0  -2.696354  -21.117906  -88.714791  9.755249  -14.927774  -0.158664  5.771584  -1.56804  10.378627  9.475072  1.652528  3.37163  -14.191715  -0.045031  -10.925815  -0.397074  5.076342  4.292743  7.718248  1.858332  0.782141  2.003641  -1.98446  -0.273746  5.510487  -5.397222  -0.914183  5.510486  -5.397221  -0.914183  -33.88505  30.974856  -18.242449  122.593189  50.661828  -147.421691  -28.189778  -5.971435  94.386771  69.240923  -11.539453  8.097218  -2.739643  -0.33927  27.373479  55.591092  41.010309  -2.517208  3.482886  -22.347354  -128.007558  52.779307  16.974715  -18.349592  -7.081199  10.333558  7.592872  -5.426997  7.665111  5.800893  
0.0  93.25843  0.0  -2.754516  -20.091355  -88.722105  9.100665  -15.405955  -0.956205  5.351469  -0.966829  11.724501  9.348364  1.709478  3.417012  -15.37643  -0.197264  -10.971512  0.114478  5.351554  4.846033  7.735819  1.914251  0.737075  1.909826  -1.973031  -0.29804  5.255249  -5.365522  -0.972082  5.255249  -5.365522  -0.972082  -33.963629  31.08794  -17.982762  122.916009  49.854679  -146.986235  -27.646545  -7.518594  94.42974  68.271801  -12.129887  7.739849  -2.353775  -0.602518  27.716374  56.355178  41.488414  -2.451472  2.703994  -22.660094  -128.209388  53.472953  17.007021  -18.194257  -7.163145  10.299897  7.746452  -5.490619  7.637131  5.916899  
0.0  93.25843  0.0  -3.040954  -19.304525  -88.928286  8.917702  -16.218626  -1.584201  4.75625  -0.294479  13.135548  8.940618  1.784051  3.283569  -16.175015  -0.461415  -10.724178  0.334976  5.556582  5.405508  7.755287  2.016435  0.654479  1.880053  -1.982412  -0.299541  5.174043  -5.391515  -0.974525  5.174043  -5.391515  -0.974525  -34.010847  31.28378  -17.558239  125.897315  49.083298  -146.571151  -25.828633  -7.185863  95.784247  67.152936  -12.77489  7.364645  -3.001515  -0.776222  27.587709  58.486082  41.673343  -1.685636  1.532514  -22.791237  -128.319189  54.149553  16.976634  -17.995709  -7.30108  10.195525  7.996325  -5.597028  7.554238  6.105259  
0.0  93.25843  0.0  -3.200018  -17.754403  -88.940822  8.075431  -16.790814  -2.670929  4.234043  0.326297  14.724536  8.804629  1.871613  3.381402  -17.326267  -0.564958  -10.708012  0.508713  5.773299  5.981918  7.757599  2.086671  0.616384  1.791264  -1.939732  -0.389238  4.93703  -5.26966  -1.209509  4.93703  -5.269659  -1.209509  -33.995438  31.498671  -16.775633  126.106536  48.341172  -146.221242  -25.42733  -8.394268  95.708671  66.003322  -13.392844  7.160119  -2.853244  -1.275395  28.361276  59.100542  42.289715  -1.735946  0.021174  -22.901705  -128.39912  55.007847  16.955698  -17.766432  -7.647773  9.99113  8.385908  -5.860813  7.391756  6.400696  
0.0  93.25843  0.0  -3.446193  -16.182872  -89.014783  7.448837  -17.451058  -3.803846  3.665145  0.957494  16.340728  8.735281  1.94861  3.540326  -18.295884  -0.689354  -10.532945  0.592938  5.933348  6.522759  7.398788  2.202081  0.459421  1.716758  -1.910871  -0.466672  4.738305  -5.18672  -1.413374  4.738305  -5.18672  -1.413374  -31.852973  32.545913  -15.278713  127.027893  47.711914  -146.420639  -23.719326  -7.460019  97.002031  64.828434  -14.019275  7.120321  -2.741394  -1.755371  29.038664  59.519742  42.951892  -1.912366  -1.516288  -23.139737  -128.499334  55.965226  16.940874  -17.466009  -7.985724  9.776018  8.826702  -6.118568  7.220262  6.734032  
